<svg xmlns="http://www.w3.org/2000/svg" xmlns:xlink="http://www.w3.org/1999/xlink" width="500" zoomAndPan="magnify" viewBox="0 0 375 374.999991" height="500" preserveAspectRatio="xMidYMid meet" version="1.0"><defs><g/><clipPath id="726cbc9270"><path d="M 29.46875 103 L 252 103 L 252 316 L 29.46875 316 Z M 29.46875 103 " clip-rule="nonzero"/></clipPath></defs><path fill="#8c52ff" d="M 305.457031 80.109375 C 304.300781 78.085938 303.082031 76.101562 301.796875 74.160156 C 300.511719 72.214844 299.164062 70.316406 297.753906 68.460938 C 296.34375 66.605469 294.875 64.800781 293.347656 63.042969 C 291.820312 61.285156 290.234375 59.578125 288.59375 57.921875 C 286.953125 56.269531 285.257812 54.671875 283.511719 53.128906 C 281.765625 51.585938 279.972656 50.101562 278.128906 48.679688 C 276.285156 47.253906 274.394531 45.890625 272.460938 44.589844 C 270.527344 43.292969 268.554688 42.054688 266.539062 40.886719 C 264.523438 39.714844 262.472656 38.613281 260.386719 37.578125 C 258.300781 36.542969 256.179688 35.578125 254.03125 34.679688 C 251.878906 33.785156 249.699219 32.960938 247.496094 32.207031 C 245.289062 31.457031 243.0625 30.777344 240.8125 30.171875 C 238.5625 29.566406 236.296875 29.035156 234.011719 28.578125 C 231.726562 28.121094 229.429688 27.738281 227.121094 27.433594 C 224.8125 27.128906 222.492188 26.898438 220.167969 26.746094 C 217.84375 26.589844 215.515625 26.515625 213.1875 26.515625 C 210.855469 26.515625 208.53125 26.589844 206.203125 26.746094 C 203.878906 26.898438 201.5625 27.128906 199.253906 27.433594 C 196.941406 27.738281 194.644531 28.121094 192.359375 28.578125 C 190.078125 29.035156 187.808594 29.566406 185.558594 30.171875 C 183.308594 30.777344 181.082031 31.457031 178.878906 32.207031 C 176.671875 32.960938 174.496094 33.785156 172.34375 34.679688 C 170.191406 35.578125 168.074219 36.542969 165.988281 37.578125 C 163.898438 38.613281 161.847656 39.714844 159.832031 40.886719 C 157.820312 42.054688 155.84375 43.292969 153.910156 44.589844 C 151.976562 45.890625 150.089844 47.253906 148.246094 48.679688 C 146.402344 50.101562 144.605469 51.585938 142.859375 53.128906 C 141.113281 54.671875 139.421875 56.269531 137.78125 57.921875 C 136.140625 59.578125 134.554688 61.285156 133.027344 63.042969 C 131.496094 64.800781 130.027344 66.605469 128.617188 68.460938 C 127.207031 70.316406 125.859375 72.214844 124.574219 74.160156 C 123.289062 76.101562 122.070312 78.085938 120.917969 80.109375 L 120.917969 80.691406 C 115.324219 90.105469 111.300781 100.148438 108.847656 110.820312 C 107.429688 117.828125 106.722656 124.910156 106.722656 132.0625 C 106.726562 141.167969 107.890625 150.125 110.214844 158.929688 C 112.535156 167.730469 115.945312 176.09375 120.433594 184.015625 C 121.328125 185.445312 122.257812 186.851562 123.21875 188.234375 C 124.179688 189.617188 125.175781 190.976562 126.199219 192.316406 C 127.226562 193.652344 128.285156 194.960938 129.375 196.25 C 130.464844 197.535156 131.582031 198.792969 132.730469 200.027344 C 133.878906 201.261719 135.058594 202.464844 136.261719 203.644531 C 137.46875 204.820312 138.703125 205.96875 139.964844 207.085938 C 141.222656 208.203125 142.511719 209.292969 143.824219 210.347656 C 145.136719 211.40625 146.472656 212.429688 147.835938 213.421875 C 149.195312 214.417969 150.582031 215.378906 151.988281 216.304688 C 153.394531 217.230469 154.824219 218.125 156.273438 218.984375 C 157.722656 219.84375 159.191406 220.667969 160.679688 221.457031 C 162.167969 222.25 163.675781 223 165.199219 223.71875 C 166.726562 224.4375 168.265625 225.117188 169.824219 225.761719 C 171.378906 226.40625 172.953125 227.015625 174.539062 227.585938 C 176.125 228.152344 177.722656 228.6875 179.332031 229.179688 C 180.945312 229.671875 182.566406 230.128906 184.199219 230.542969 C 185.832031 230.960938 187.476562 231.339844 189.125 231.675781 C 190.777344 232.015625 192.433594 232.3125 194.101562 232.574219 C 195.765625 232.832031 197.433594 233.050781 199.109375 233.230469 C 200.785156 233.410156 202.464844 233.550781 204.148438 233.652344 C 205.832031 233.75 207.515625 233.8125 209.199219 233.832031 C 210.882812 233.851562 212.570312 233.832031 214.253906 233.769531 C 215.9375 233.710938 217.617188 233.609375 219.296875 233.46875 C 220.976562 233.328125 222.652344 233.148438 224.324219 232.929688 C 225.992188 232.707031 227.660156 232.449219 229.316406 232.148438 C 230.976562 231.847656 232.625 231.511719 234.269531 231.132812 C 235.910156 230.753906 237.542969 230.339844 239.164062 229.882812 C 240.789062 229.425781 242.398438 228.933594 243.996094 228.402344 C 245.597656 227.867188 247.183594 227.296875 248.753906 226.691406 C 250.324219 226.082031 251.882812 225.4375 253.421875 224.757812 C 254.964844 224.074219 256.488281 223.355469 257.996094 222.601562 C 259.503906 221.847656 260.992188 221.058594 262.460938 220.234375 C 263.929688 219.40625 265.378906 218.546875 266.804688 217.652344 C 268.234375 216.757812 269.640625 215.832031 271.027344 214.871094 C 272.410156 213.910156 273.769531 212.917969 275.109375 211.890625 C 276.445312 210.863281 277.757812 209.808594 279.042969 208.71875 C 280.332031 207.632812 281.589844 206.511719 282.824219 205.363281 C 284.058594 204.214844 285.261719 203.039062 286.441406 201.832031 C 287.617188 200.628906 288.765625 199.394531 289.882812 198.132812 C 291.003906 196.875 292.089844 195.589844 293.148438 194.277344 C 294.207031 192.964844 295.234375 191.628906 296.226562 190.265625 C 297.21875 188.90625 298.179688 187.523438 299.109375 186.117188 C 300.039062 184.707031 300.933594 183.28125 301.792969 181.832031 C 302.652344 180.382812 303.476562 178.914062 304.269531 177.425781 C 305.058594 175.9375 305.8125 174.429688 306.53125 172.90625 C 307.25 171.382812 307.929688 169.839844 308.578125 168.285156 C 309.222656 166.726562 309.828125 165.15625 310.398438 163.570312 C 310.96875 161.984375 311.503906 160.386719 311.996094 158.773438 C 312.492188 157.164062 312.949219 155.542969 313.363281 153.910156 C 313.78125 152.277344 314.160156 150.636719 314.5 148.984375 C 314.835938 147.332031 315.136719 145.675781 315.398438 144.011719 C 315.65625 142.34375 315.878906 140.675781 316.058594 139 C 316.238281 137.324219 316.378906 135.644531 316.480469 133.964844 C 316.582031 132.28125 316.640625 130.597656 316.664062 128.910156 C 316.683594 127.226562 316.664062 125.542969 316.605469 123.859375 C 316.542969 122.175781 316.445312 120.492188 316.304688 118.8125 C 316.164062 117.132812 315.984375 115.457031 315.765625 113.789062 C 315.546875 112.117188 315.289062 110.453125 314.988281 108.792969 C 314.691406 107.132812 314.351562 105.484375 313.976562 103.839844 C 313.597656 102.199219 313.183594 100.566406 312.726562 98.945312 C 312.273438 97.320312 311.78125 95.710938 311.25 94.109375 C 310.71875 92.511719 310.148438 90.925781 309.539062 89.355469 C 308.933594 87.78125 308.289062 86.226562 307.609375 84.683594 C 306.925781 83.140625 306.210938 81.617188 305.457031 80.109375 Z M 290.777344 170.691406 L 267.023438 170.691406 C 269.070312 161.136719 270.359375 151.476562 270.886719 141.71875 L 299.855469 141.71875 C 298.542969 151.914062 295.515625 161.570312 290.777344 170.691406 Z M 127.773438 114.679688 C 129.285156 107.277344 131.734375 100.195312 135.113281 93.4375 L 158.867188 93.4375 C 156.820312 102.992188 155.53125 112.648438 155.003906 122.40625 L 126.035156 122.40625 C 126.902344 119.800781 127.289062 117.191406 127.773438 114.679688 Z M 222.601562 74.125 L 222.601562 48.339844 C 226.871094 51.65625 230.582031 55.503906 233.734375 59.890625 C 236.890625 64.277344 239.359375 69.023438 241.144531 74.125 Z M 247.324219 93.4375 C 249.605469 102.964844 251.019531 112.625 251.570312 122.40625 L 222.601562 122.40625 L 222.601562 93.4375 Z M 203.289062 48.339844 L 203.289062 74.125 L 184.746094 74.125 C 186.53125 69.023438 189 64.277344 192.15625 59.890625 C 195.308594 55.503906 199.019531 51.65625 203.289062 48.339844 Z M 203.289062 93.4375 L 203.289062 122.40625 L 174.320312 122.40625 C 174.804688 112.628906 176.160156 102.972656 178.375 93.4375 Z M 126.613281 141.71875 L 155.585938 141.71875 C 156.015625 151.46875 157.207031 161.128906 159.15625 170.691406 L 135.207031 170.691406 C 130.625 161.542969 127.757812 151.886719 126.613281 141.71875 Z M 174.898438 141.71875 L 203.867188 141.71875 L 203.867188 170.691406 L 178.566406 170.691406 C 176.285156 161.160156 174.871094 151.503906 174.320312 141.71875 Z M 203.867188 190.003906 L 203.867188 215.785156 C 199.492188 212.511719 195.679688 208.679688 192.425781 204.292969 C 189.167969 199.902344 186.609375 195.140625 184.746094 190.003906 Z M 223.179688 215.785156 L 223.179688 190.003906 L 241.722656 190.003906 C 239.859375 195.140625 237.300781 199.902344 234.046875 204.292969 C 230.789062 208.679688 226.976562 212.511719 222.601562 215.785156 Z M 222.601562 170.691406 L 222.601562 141.71875 L 251.570312 141.71875 C 251.082031 151.496094 249.730469 161.15625 247.515625 170.691406 Z M 270.886719 122.40625 C 270.453125 112.65625 269.261719 103 267.3125 93.4375 L 290.972656 93.4375 C 295.558594 102.582031 298.421875 112.238281 299.566406 122.40625 Z M 277.839844 74.125 L 261.710938 74.125 C 259.46875 67.425781 256.636719 60.988281 253.214844 54.808594 C 262.496094 59.773438 270.605469 66.210938 277.546875 74.125 Z M 172.675781 54.808594 C 169.253906 60.988281 166.421875 67.425781 164.179688 74.125 L 148.34375 74.125 C 155.296875 66.226562 163.40625 59.789062 172.675781 54.808594 Z M 148.34375 190.003906 L 164.179688 190.003906 C 166.421875 196.703125 169.253906 203.140625 172.675781 209.316406 C 163.394531 204.351562 155.285156 197.914062 148.34375 190.003906 Z M 253.117188 209.316406 C 256.574219 203.144531 259.441406 196.707031 261.710938 190.003906 L 277.742188 190.003906 C 270.710938 197.945312 262.503906 204.382812 253.117188 209.316406 Z M 253.117188 209.316406 " fill-opacity="1" fill-rule="nonzero"/><g clip-path="url(#726cbc9270)"><path fill="#8c52ff" d="M 247.710938 242.632812 C 245.550781 243.3125 243.371094 243.925781 241.171875 244.480469 C 238.976562 245.03125 236.765625 245.519531 234.542969 245.941406 C 232.316406 246.363281 230.082031 246.71875 227.835938 247.007812 C 225.589844 247.300781 223.335938 247.527344 221.078125 247.683594 C 218.816406 247.84375 216.554688 247.9375 214.289062 247.960938 C 212.027344 247.988281 209.761719 247.949219 207.5 247.84375 C 205.238281 247.734375 202.980469 247.5625 200.730469 247.324219 C 198.476562 247.085938 196.234375 246.78125 194 246.410156 C 191.765625 246.039062 189.542969 245.605469 187.335938 245.105469 C 185.125 244.605469 182.933594 244.039062 180.757812 243.410156 C 178.582031 242.78125 176.425781 242.089844 174.292969 241.332031 C 172.15625 240.578125 170.046875 239.761719 167.957031 238.882812 C 165.871094 238.003906 163.8125 237.0625 161.777344 236.0625 C 159.746094 235.0625 157.746094 234.003906 155.777344 232.886719 C 153.804688 231.769531 151.871094 230.59375 149.96875 229.363281 C 148.066406 228.132812 146.203125 226.847656 144.378906 225.507812 C 142.554688 224.167969 140.769531 222.773438 139.023438 221.332031 C 137.28125 219.886719 135.578125 218.390625 133.921875 216.847656 C 132.265625 215.300781 130.65625 213.710938 129.09375 212.070312 C 127.53125 210.433594 126.015625 208.75 124.550781 207.023438 C 123.085938 205.292969 121.675781 203.527344 120.3125 201.714844 C 118.953125 199.90625 117.648438 198.054688 116.394531 196.167969 C 115.140625 194.28125 113.945312 192.359375 112.804688 190.402344 C 111.667969 188.445312 110.585938 186.457031 109.5625 184.4375 C 108.539062 182.414062 107.574219 180.367188 106.671875 178.289062 C 105.769531 176.210938 104.929688 174.109375 104.148438 171.984375 C 103.367188 169.859375 102.652344 167.710938 102 165.542969 C 101.34375 163.375 100.753906 161.1875 100.230469 158.984375 C 99.703125 156.78125 99.242188 154.566406 98.847656 152.335938 C 98.453125 150.105469 98.121094 147.867188 97.855469 145.617188 C 97.59375 143.367188 97.394531 141.113281 97.261719 138.851562 C 97.128906 136.589844 97.0625 134.328125 97.066406 132.0625 C 97.070312 124.261719 97.839844 116.535156 99.382812 108.886719 C 99.382812 106.957031 100.347656 105.023438 100.832031 103.09375 L 58.4375 103.09375 C 57.488281 103.09375 56.542969 103.140625 55.597656 103.234375 C 54.652344 103.324219 53.71875 103.464844 52.785156 103.648438 C 51.855469 103.835938 50.9375 104.066406 50.027344 104.339844 C 49.121094 104.617188 48.226562 104.933594 47.351562 105.296875 C 46.476562 105.660156 45.617188 106.066406 44.78125 106.515625 C 43.945312 106.960938 43.132812 107.449219 42.34375 107.976562 C 41.554688 108.503906 40.792969 109.066406 40.058594 109.667969 C 39.324219 110.269531 38.625 110.90625 37.953125 111.578125 C 37.28125 112.25 36.644531 112.953125 36.042969 113.683594 C 35.441406 114.417969 34.878906 115.179688 34.351562 115.96875 C 33.824219 116.757812 33.335938 117.570312 32.890625 118.40625 C 32.441406 119.242188 32.035156 120.101562 31.671875 120.976562 C 31.308594 121.855469 30.992188 122.746094 30.714844 123.652344 C 30.441406 124.5625 30.210938 125.480469 30.023438 126.410156 C 29.839844 127.34375 29.699219 128.28125 29.609375 129.222656 C 29.515625 130.167969 29.46875 131.113281 29.46875 132.0625 L 29.46875 247.945312 C 29.464844 248.839844 29.5 249.730469 29.582031 250.625 C 29.660156 251.515625 29.777344 252.402344 29.941406 253.28125 C 30.101562 254.160156 30.300781 255.03125 30.542969 255.894531 C 30.785156 256.753906 31.066406 257.605469 31.386719 258.441406 C 31.707031 259.277344 32.066406 260.09375 32.460938 260.898438 C 32.859375 261.699219 33.289062 262.480469 33.757812 263.242188 C 34.226562 264.007812 34.730469 264.746094 35.269531 265.460938 C 35.804688 266.175781 36.375 266.867188 36.976562 267.527344 C 37.578125 268.191406 38.207031 268.824219 38.867188 269.429688 C 39.527344 270.035156 40.214844 270.609375 40.925781 271.148438 C 41.640625 271.691406 42.375 272.195312 43.136719 272.667969 C 43.894531 273.140625 44.675781 273.578125 45.476562 273.980469 C 46.277344 274.378906 47.09375 274.742188 47.925781 275.066406 C 48.761719 275.390625 49.609375 275.675781 50.46875 275.921875 C 51.328125 276.167969 52.199219 276.375 53.078125 276.539062 C 53.957031 276.707031 54.84375 276.832031 55.734375 276.914062 L 48.78125 303.566406 C 48.523438 304.507812 48.40625 305.464844 48.4375 306.4375 C 48.46875 307.414062 48.644531 308.363281 48.960938 309.285156 C 49.28125 310.207031 49.726562 311.058594 50.304688 311.84375 C 50.882812 312.632812 51.5625 313.316406 52.347656 313.894531 C 53.128906 314.476562 53.984375 314.925781 54.902344 315.25 C 55.824219 315.570312 56.769531 315.75 57.746094 315.785156 C 58.71875 315.816406 59.679688 315.707031 60.621094 315.453125 C 61.5625 315.195312 62.441406 314.808594 63.265625 314.285156 L 128.640625 276.914062 L 222.601562 276.914062 C 223.550781 276.914062 224.496094 276.867188 225.441406 276.773438 C 226.386719 276.679688 227.324219 276.542969 228.253906 276.355469 C 229.183594 276.171875 230.105469 275.941406 231.011719 275.667969 C 231.917969 275.390625 232.8125 275.070312 233.6875 274.707031 C 234.566406 274.34375 235.421875 273.941406 236.257812 273.492188 C 237.09375 273.046875 237.90625 272.558594 238.695312 272.03125 C 239.484375 271.503906 240.246094 270.941406 240.980469 270.339844 C 241.714844 269.734375 242.414062 269.097656 243.085938 268.429688 C 243.757812 267.757812 244.394531 267.054688 244.996094 266.320312 C 245.597656 265.589844 246.164062 264.828125 246.691406 264.039062 C 247.21875 263.25 247.703125 262.4375 248.152344 261.601562 C 248.597656 260.761719 249.003906 259.90625 249.367188 259.03125 C 249.730469 258.152344 250.050781 257.261719 250.324219 256.351562 C 250.601562 255.445312 250.832031 254.527344 251.015625 253.59375 C 251.199219 252.664062 251.339844 251.726562 251.433594 250.785156 C 251.527344 249.839844 251.570312 248.894531 251.570312 247.945312 L 251.570312 241.183594 Z M 247.710938 242.632812 " fill-opacity="1" fill-rule="nonzero"/></g><g fill="#ffffff" fill-opacity="1"><g transform="translate(53.341169, 273.662327)"><g><path d="M 21.199219 -16.027344 C 21.199219 -16.257812 21.199219 -16.488281 21.199219 -16.71875 C 21.199219 -17.636719 21.140625 -18.46875 20.996094 -19.21875 L 22.234375 -19.21875 C 22.203125 -19.445312 22.148438 -19.675781 22.089844 -19.90625 L 20.25 -19.90625 C 20.050781 -20.652344 19.761719 -21.3125 19.359375 -21.832031 C 19.332031 -21.886719 19.304688 -21.917969 19.246094 -21.976562 L 21.398438 -21.976562 C 20.507812 -23.09375 19.128906 -23.667969 17.265625 -23.667969 L 4.023438 -23.667969 C 3.761719 -23.667969 3.1875 -23.582031 3.1875 -22.664062 L 3.1875 -21.976562 L 1.0625 -21.976562 L 1.0625 -20.394531 C 1.0625 -20.195312 1.089844 -20.019531 1.148438 -19.90625 L 4.109375 -19.90625 C 4.28125 -19.476562 4.652344 -19.417969 4.855469 -19.417969 L 17.351562 -19.417969 C 17.753906 -19.417969 18.097656 -19.332031 18.355469 -19.21875 L 15.972656 -19.21875 C 16.199219 -19.101562 16.375 -18.988281 16.488281 -18.785156 C 16.804688 -18.355469 16.949219 -17.664062 16.949219 -16.71875 C 16.949219 -16.460938 16.949219 -16.257812 16.917969 -16.027344 L 19.621094 -16.027344 C 19.5625 -15.425781 19.417969 -14.964844 19.1875 -14.648438 C 18.902344 -14.21875 18.382812 -14.019531 17.664062 -14.019531 L 5.140625 -14.019531 C 5.054688 -14.019531 4.941406 -14.019531 4.824219 -13.960938 L 2.988281 -13.960938 C 2.757812 -13.875 2.5 -13.617188 2.5 -13.042969 L 2.5 -10.570312 L 0.144531 -10.570312 L 0.144531 -9.882812 L 3.621094 -9.882812 L 3.621094 -4.597656 L 2.84375 -4.597656 L 2.84375 -2.527344 L -0.402344 -2.527344 L -0.402344 -1.089844 L 3.1875 -1.089844 L 3.1875 -0.976562 C 3.1875 -0.0859375 3.761719 0.0273438 4.023438 0.0273438 L 6.636719 0.0273438 C 6.894531 0.0273438 7.441406 -0.0859375 7.441406 -0.976562 L 7.441406 -1.089844 L 6.75 -1.089844 L 6.75 -2.527344 L 9.164062 -2.527344 L 9.164062 -4.597656 L 7.871094 -4.597656 L 7.871094 -9.765625 L 17.695312 -9.796875 C 18.183594 -9.796875 18.613281 -9.824219 19.015625 -9.882812 L 16.976562 -9.882812 C 17.695312 -10.023438 18.296875 -10.253906 18.816406 -10.570312 L 19.734375 -10.570312 C 20.164062 -10.859375 20.507812 -11.203125 20.824219 -11.605469 C 21.257812 -12.238281 21.574219 -13.042969 21.800781 -13.960938 L 22.636719 -13.960938 C 22.75 -14.59375 22.863281 -15.28125 22.894531 -16.027344 Z M 9.421875 -17.265625 L 3.359375 -17.265625 L 3.359375 -18.011719 L 9.421875 -18.011719 Z M 14.792969 -15.453125 L 10.167969 -15.453125 L 10.167969 -16.027344 L 14.792969 -16.027344 Z M 17.265625 -6.0625 L 9.9375 -6.0625 L 9.9375 -6.636719 L 17.265625 -6.636719 Z M 13.183594 -8.214844 L 7.871094 -8.214844 L 7.871094 -8.589844 L 13.183594 -8.589844 Z M 13.183594 -8.214844 "/></g></g></g><g fill="#ffffff" fill-opacity="1"><g transform="translate(78.933098, 273.662327)"><g><path d="M 16.574219 -17.980469 L 8.417969 -17.980469 L 8.417969 -18.382812 L 16.574219 -18.382812 Z M 16.199219 -7.640625 L 10.226562 -7.640625 L 10.226562 -7.929688 L 16.199219 -7.929688 Z M 14.332031 -0.632812 L 9.507812 -0.632812 L 9.507812 -1.003906 L 14.332031 -1.003906 Z M 24.703125 -11.835938 L 24.703125 -12.410156 L 21.6875 -12.410156 L 21.6875 -15.339844 L 24.042969 -15.339844 L 24.042969 -17.121094 L 21.917969 -17.121094 L 21.917969 -19.847656 L 21.3125 -19.847656 L 21.3125 -20.453125 L 24.503906 -20.453125 L 24.503906 -22.234375 L 22.117188 -22.234375 L 22.117188 -22.664062 C 22.117188 -23.554688 21.542969 -23.667969 21.285156 -23.667969 L 18.671875 -23.667969 C 18.414062 -23.667969 17.867188 -23.554688 17.867188 -22.664062 L 17.867188 -22.234375 L 20.25 -22.234375 L 20.25 -20.453125 L 12.351562 -20.453125 L 12.351562 -19.847656 L 17.664062 -19.847656 L 17.664062 -17.121094 L 19.792969 -17.121094 L 19.792969 -15.339844 L 17.4375 -15.339844 L 17.4375 -14.074219 L 6.550781 -14.074219 L 6.550781 -15.339844 L 8.933594 -15.339844 L 8.933594 -17.121094 L 6.777344 -17.121094 L 6.777344 -19.847656 L 6.203125 -19.847656 L 6.203125 -20.453125 L 9.363281 -20.453125 L 9.363281 -22.234375 L 6.980469 -22.234375 L 6.980469 -22.664062 C 6.980469 -23.554688 6.433594 -23.667969 6.175781 -23.667969 L 3.5625 -23.667969 C 3.304688 -23.667969 2.730469 -23.554688 2.730469 -22.664062 L 2.730469 -22.234375 L 5.113281 -22.234375 L 5.113281 -20.453125 L 0.863281 -20.453125 L 0.863281 -19.847656 L 2.527344 -19.847656 L 2.527344 -17.121094 L 4.652344 -17.121094 L 4.652344 -15.339844 L 2.296875 -15.339844 L 2.296875 -12.410156 L 9.851562 -12.410156 L 9.851562 -11.835938 L 2.039062 -11.835938 L 2.039062 -7.238281 L 4.453125 -7.238281 L 4.453125 -5.457031 L 3.53125 -5.457031 L 3.53125 -4.222656 L 1.867188 -4.222656 L 1.867188 -2.441406 L 3.992188 -2.441406 L 3.992188 -0.976562 C 3.992188 -0.0859375 4.566406 0.0273438 4.824219 0.0273438 L 7.46875 0.0273438 C 7.699219 0.0273438 8.242188 -0.0859375 8.242188 -0.976562 L 8.242188 -2.441406 L 6.117188 -2.441406 L 6.117188 -4.222656 L 13.441406 -4.222656 L 13.441406 -5.457031 L 8.703125 -5.457031 L 8.703125 -7.238281 L 6.578125 -7.238281 L 6.578125 -9.824219 L 18.152344 -9.824219 L 18.152344 -7.238281 L 19.589844 -7.238281 L 19.589844 -5.457031 L 17.664062 -5.457031 L 17.664062 -4.222656 L 17.003906 -4.222656 L 17.003906 -2.441406 L 19.128906 -2.441406 L 19.128906 -0.976562 C 19.128906 -0.0859375 19.675781 0.0273438 19.933594 0.0273438 L 22.550781 0.0273438 C 22.808594 0.0273438 23.382812 -0.0859375 23.382812 -0.976562 L 23.382812 -2.441406 L 21.257812 -2.441406 L 21.257812 -4.222656 L 23.410156 -4.222656 L 23.410156 -5.457031 L 23.839844 -5.457031 L 23.839844 -7.238281 L 22.664062 -7.238281 L 22.664062 -11.835938 Z M 24.703125 -11.835938 "/></g></g></g><g fill="#ffffff" fill-opacity="1"><g transform="translate(104.35269, 273.662327)"><g><path d="M 18.902344 -11.605469 C 19.332031 -12.238281 19.648438 -12.984375 19.847656 -13.875 L 23.46875 -13.875 C 23.527344 -14.074219 23.582031 -14.332031 23.613281 -14.5625 L 19.675781 -14.5625 C 19.792969 -15.195312 19.847656 -15.886719 19.847656 -16.632812 L 22.894531 -16.632812 C 22.894531 -16.660156 22.894531 -16.6875 22.894531 -16.71875 C 22.894531 -17.4375 22.835938 -18.097656 22.75 -18.671875 L 21.628906 -18.671875 C 21.628906 -18.699219 21.628906 -18.699219 21.628906 -18.699219 L 20.367188 -18.699219 C 20.25 -19.476562 20.078125 -20.136719 19.847656 -20.738281 L 22.089844 -20.738281 C 21.917969 -21.140625 21.714844 -21.515625 21.484375 -21.832031 C 21.226562 -22.234375 20.882812 -22.550781 20.480469 -22.808594 L 18.039062 -22.808594 C 17.207031 -23.382812 16.144531 -23.667969 14.792969 -23.667969 L 1.550781 -23.667969 C 1.320312 -23.667969 0.804688 -23.582031 0.746094 -22.808594 L 3.1875 -22.808594 C 3.1875 -22.75 3.1875 -22.722656 3.1875 -22.664062 L 3.1875 -20.738281 L 0.917969 -20.738281 L 0.917969 -20.394531 C 0.917969 -19.503906 1.492188 -19.417969 1.753906 -19.417969 L 14.246094 -19.417969 C 14.996094 -19.417969 15.511719 -19.21875 15.796875 -18.785156 C 15.796875 -18.757812 15.828125 -18.730469 15.828125 -18.699219 L 17.089844 -18.699219 C 17.089844 -18.699219 17.089844 -18.699219 17.089844 -18.671875 L 18.210938 -18.671875 C 18.5 -18.242188 18.640625 -17.578125 18.640625 -16.71875 C 18.640625 -16.6875 18.613281 -16.660156 18.613281 -16.632812 L 15.597656 -16.632812 C 15.597656 -15.742188 15.425781 -15.082031 15.136719 -14.648438 C 15.109375 -14.621094 15.082031 -14.59375 15.050781 -14.5625 L 18.988281 -14.5625 C 18.671875 -14.21875 18.210938 -14.019531 17.523438 -14.019531 L 5.027344 -14.019531 C 4.910156 -14.019531 4.710938 -14.019531 4.511719 -13.875 L 0.890625 -13.875 C 0.71875 -13.730469 0.574219 -13.472656 0.574219 -13.042969 L 0.574219 -10.6875 L 3.304688 -10.6875 L 3.304688 -8.617188 L 1.320312 -8.617188 L 1.320312 -5.257812 L 3.445312 -5.257812 L 3.445312 -4.539062 L 1.320312 -4.539062 L 1.320312 -0.976562 C 1.320312 -0.863281 1.320312 -0.746094 1.351562 -0.660156 L 2.671875 -0.660156 C 2.785156 -0.0585938 3.246094 0.0273438 3.476562 0.0273438 L 6.089844 0.0273438 C 6.320312 0.0273438 6.75 -0.0585938 6.867188 -0.660156 L 5.542969 -0.660156 C 5.574219 -0.746094 5.574219 -0.863281 5.574219 -0.976562 L 5.574219 -4.539062 L 10.3125 -4.539062 L 10.3125 -5.257812 L 5.574219 -5.257812 L 5.574219 -8.617188 L 7.554688 -8.617188 L 7.554688 -9.765625 L 13.617188 -9.765625 L 14.246094 -8.617188 L 12.265625 -8.617188 L 14.191406 -5.257812 L 16.316406 -5.257812 L 16.6875 -4.539062 L 14.59375 -4.539062 L 16.804688 -0.660156 L 18.125 -0.660156 L 18.183594 -0.546875 C 18.269531 -0.375 18.382812 -0.230469 18.46875 -0.144531 C 18.613281 -0.0273438 18.816406 0.0273438 19.101562 0.0273438 L 22.234375 0.0273438 C 22.578125 0.0273438 22.835938 -0.199219 22.894531 -0.546875 C 22.894531 -0.574219 22.894531 -0.601562 22.894531 -0.660156 L 21.574219 -0.660156 C 21.574219 -0.890625 21.542969 -1.089844 21.457031 -1.234375 L 19.503906 -4.539062 L 21.628906 -4.539062 L 21.226562 -5.257812 L 19.101562 -5.257812 L 17.121094 -8.617188 L 19.101562 -8.617188 L 18.382812 -9.851562 C 19.304688 -9.96875 20.078125 -10.253906 20.710938 -10.6875 L 17.980469 -10.6875 C 18.328125 -10.945312 18.640625 -11.261719 18.902344 -11.605469 Z M 8.789062 -15.023438 L 2.757812 -15.023438 L 2.757812 -15.769531 L 8.789062 -15.769531 Z M 11.460938 -17.953125 L 6.148438 -17.953125 L 6.148438 -18.328125 L 11.460938 -18.328125 Z M 12.984375 -2.5 L 7.667969 -2.5 L 7.667969 -2.902344 L 12.984375 -2.902344 Z M 12.984375 -2.5 "/></g></g></g><g fill="#ffffff" fill-opacity="1"><g transform="translate(130.66269, 273.662327)"><g><path d="M 27.632812 -1.0625 L 25.421875 -1.0625 C 25.421875 -1.089844 25.421875 -1.089844 25.421875 -1.089844 L 24.703125 -2.871094 L 26.339844 -2.871094 L 24.789062 -6.691406 L 22.519531 -6.691406 L 21.800781 -8.503906 L 23.324219 -8.503906 L 21.484375 -13.070312 L 22.808594 -13.070312 L 22.578125 -13.671875 L 20.453125 -13.671875 L 19.273438 -16.574219 L 20.683594 -16.574219 L 19.933594 -18.382812 L 17.808594 -18.382812 L 16.746094 -20.996094 C 16.746094 -21.027344 16.71875 -21.054688 16.71875 -21.113281 L 15.484375 -21.113281 C 15.425781 -21.226562 15.367188 -21.34375 15.339844 -21.429688 C 15.308594 -21.515625 15.253906 -21.601562 15.222656 -21.714844 L 18.816406 -21.714844 C 18.527344 -22.464844 17.980469 -23.09375 17.292969 -23.496094 L 16.429688 -23.496094 C 15.914062 -23.8125 15.308594 -23.984375 14.648438 -23.984375 C 14.019531 -23.984375 13.386719 -23.8125 12.867188 -23.496094 L 13.703125 -23.496094 C 13.644531 -23.46875 13.585938 -23.410156 13.5 -23.382812 C 13.355469 -23.296875 13.214844 -23.179688 13.097656 -23.09375 C 12.753906 -22.808594 12.464844 -22.347656 12.152344 -21.714844 L 8.558594 -21.714844 C 8.472656 -21.515625 8.386719 -21.3125 8.300781 -21.113281 L 9.507812 -21.113281 C 9.507812 -21.054688 9.480469 -21.027344 9.480469 -20.996094 L 8.417969 -18.382812 L 10.542969 -18.382812 L 9.824219 -16.574219 L 8.417969 -16.574219 L 7.238281 -13.671875 L 9.363281 -13.671875 L 9.132812 -13.070312 L 7.785156 -13.070312 L 5.945312 -8.503906 L 4.421875 -8.503906 L 3.707031 -6.691406 L 5.976562 -6.691406 L 4.421875 -2.871094 L 2.757812 -2.871094 L 2.066406 -1.089844 C 2.066406 -1.089844 2.039062 -1.089844 2.039062 -1.0625 L 4.28125 -1.0625 C 4.195312 -0.832031 4.164062 -0.660156 4.195312 -0.488281 L 1.894531 -0.488281 C 1.925781 -0.460938 1.925781 -0.429688 1.925781 -0.402344 C 1.953125 -0.230469 2.097656 0.0273438 2.554688 0.0273438 L 5.714844 0.0273438 C 6.0625 0.0273438 6.320312 -0.171875 6.464844 -0.488281 L 8.761719 -0.488281 C 8.789062 -0.515625 8.820312 -0.546875 8.820312 -0.574219 L 9.019531 -1.0625 L 6.777344 -1.0625 L 7.496094 -2.871094 L 9.164062 -2.871094 L 9.882812 -4.683594 L 16.171875 -4.683594 C 16.488281 -4.683594 16.777344 -4.824219 16.917969 -5.085938 C 17.089844 -5.3125 17.121094 -5.628906 17.035156 -5.917969 L 16.71875 -6.691406 L 14.449219 -6.691406 L 13.730469 -8.472656 C 13.730469 -8.472656 13.730469 -8.503906 13.730469 -8.503906 L 15.253906 -8.503906 C 15.109375 -8.820312 14.792969 -9.046875 14.421875 -9.046875 L 10.886719 -9.046875 L 11.402344 -10.339844 L 14.277344 -10.339844 L 14.277344 -10.65625 L 11.519531 -10.65625 L 12.464844 -13.070312 L 13.789062 -13.070312 L 14.046875 -13.671875 L 11.921875 -13.671875 L 13.070312 -16.574219 L 14.476562 -16.574219 L 15.167969 -18.355469 C 15.195312 -18.382812 15.195312 -18.382812 15.195312 -18.382812 L 15.367188 -18.382812 L 16.085938 -16.574219 L 14.679688 -16.574219 L 15.855469 -13.671875 L 17.980469 -13.671875 L 18.210938 -13.070312 L 16.890625 -13.070312 L 18.699219 -8.503906 L 17.175781 -8.503906 L 17.894531 -6.691406 L 20.164062 -6.691406 L 21.714844 -2.871094 L 20.050781 -2.871094 L 20.769531 -1.0625 L 23.007812 -1.0625 L 23.179688 -0.601562 C 23.210938 -0.546875 23.238281 -0.515625 23.238281 -0.488281 L 20.941406 -0.488281 C 21.113281 -0.171875 21.371094 0.0273438 21.714844 0.0273438 L 24.789062 0.0273438 C 25.25 0.0273438 25.363281 -0.257812 25.421875 -0.402344 C 25.421875 -0.402344 25.421875 -0.460938 25.421875 -0.488281 L 27.71875 -0.488281 C 27.75 -0.660156 27.71875 -0.832031 27.632812 -1.0625 Z M 13.128906 -3.621094 L 17.953125 -3.621094 L 17.953125 -3.332031 L 13.128906 -3.332031 Z M 8.128906 -2.039062 L 11.289062 -2.039062 L 11.289062 -1.722656 L 8.128906 -1.722656 Z M 8.128906 -2.039062 "/></g></g></g><g fill="#ffffff" fill-opacity="1"><g transform="translate(160.304522, 273.662327)"><g><path d="M 20.910156 -8.070312 L 23.382812 -8.070312 L 23.382812 -8.1875 C 23.382812 -8.90625 23.324219 -9.535156 23.210938 -10.140625 L 19.648438 -10.140625 C 19.476562 -11.117188 19.160156 -11.921875 18.699219 -12.554688 C 18.46875 -12.839844 18.242188 -13.097656 17.953125 -13.300781 L 22.605469 -13.300781 C 22.175781 -13.644531 21.6875 -13.875 21.140625 -13.988281 L 16.976562 -13.988281 C 16.601562 -14.074219 16.199219 -14.132812 15.769531 -14.132812 L 7.179688 -14.132812 C 6.75 -14.132812 6.175781 -14.304688 6.175781 -15.710938 L 6.175781 -16.058594 L 9.9375 -16.058594 L 9.9375 -17.839844 C 9.9375 -17.925781 9.9375 -18.039062 9.9375 -18.125 L 7.613281 -18.125 C 7.613281 -18.125 7.613281 -18.125 7.613281 -18.152344 L 6.40625 -18.152344 C 6.433594 -18.527344 6.519531 -18.816406 6.664062 -19.042969 C 6.75 -19.21875 6.921875 -19.417969 7.410156 -19.417969 L 19.101562 -19.417969 C 19.304688 -19.417969 19.792969 -19.503906 19.878906 -20.164062 L 22.605469 -20.164062 C 22.605469 -20.25 22.605469 -20.308594 22.605469 -20.394531 L 22.605469 -22.234375 L 19.128906 -22.234375 L 19.128906 -22.691406 C 19.128906 -23.582031 18.585938 -23.667969 18.328125 -23.667969 L 5.945312 -23.667969 C 4.480469 -23.667969 3.359375 -23.179688 2.613281 -22.234375 L 6.089844 -22.234375 C 6.03125 -22.175781 6.003906 -22.148438 5.945312 -22.089844 C 5.574219 -21.542969 5.285156 -20.882812 5.113281 -20.164062 L 2.382812 -20.164062 C 2.242188 -19.5625 2.15625 -18.871094 2.15625 -18.152344 L 3.332031 -18.152344 C 3.332031 -18.125 3.332031 -18.125 3.332031 -18.125 L 3.847656 -18.125 C 3.847656 -18.097656 3.847656 -18.066406 3.847656 -18.011719 L 3.847656 -16.058594 L 1.925781 -16.058594 L 1.925781 -15.828125 C 1.925781 -15.167969 1.953125 -14.5625 2.039062 -13.988281 L 4.855469 -13.988281 C 4.910156 -13.757812 4.941406 -13.53125 5 -13.300781 L 1.667969 -13.300781 C 1.867188 -12.464844 2.15625 -11.75 2.527344 -11.230469 C 2.957031 -10.65625 3.476562 -10.339844 4.050781 -10.140625 L 7.613281 -10.140625 C 8.214844 -9.9375 8.875 -9.882812 9.507812 -9.882812 L 18.125 -9.882812 C 18.554688 -9.882812 19.128906 -9.710938 19.128906 -8.300781 L 19.128906 -8.070312 L 16.660156 -8.070312 L 16.660156 -5.832031 C 16.660156 -5.34375 16.574219 -4.96875 16.429688 -4.683594 L 18.527344 -4.683594 C 18.527344 -4.652344 18.527344 -4.652344 18.5 -4.625 C 18.414062 -4.453125 18.242188 -4.25 17.753906 -4.25 L 5.488281 -4.25 C 5.3125 -4.25 5.054688 -4.222656 4.855469 -3.992188 L 1.035156 -3.992188 C 0.917969 -3.847656 0.832031 -3.621094 0.832031 -3.273438 L 0.832031 -1.234375 L 4.308594 -1.234375 L 4.308594 -0.976562 C 4.308594 -0.0859375 4.882812 0 5.113281 0 L 18.097656 0 C 19.476562 0 20.539062 -0.402344 21.285156 -1.234375 L 17.808594 -1.234375 C 17.925781 -1.351562 18.011719 -1.464844 18.097656 -1.609375 C 18.585938 -2.269531 18.902344 -3.074219 19.074219 -3.992188 L 22.894531 -3.992188 C 22.921875 -4.222656 22.953125 -4.453125 22.980469 -4.683594 L 20.855469 -4.683594 C 20.882812 -5 20.910156 -5.3125 20.910156 -5.660156 Z M 12.09375 -5.199219 L 6.0625 -5.199219 L 6.0625 -5.945312 L 12.09375 -5.945312 Z M 18.355469 -15.023438 L 14.21875 -15.023438 L 14.21875 -15.769531 L 18.355469 -15.769531 Z M 13.988281 -8.359375 L 8.644531 -8.359375 L 8.644531 -8.761719 L 13.988281 -8.761719 Z M 16.632812 -17.953125 L 11.316406 -17.953125 L 11.316406 -18.328125 L 16.632812 -18.328125 Z M 16.632812 -17.953125 "/></g></g></g><g fill="#ffffff" fill-opacity="1"><g transform="translate(184.747544, 273.662327)"><g><path d="M 19.53125 -22.605469 L 19.53125 -22.722656 C 19.53125 -23.613281 18.988281 -23.726562 18.730469 -23.726562 L 2.242188 -23.726562 C 1.980469 -23.726562 1.4375 -23.613281 1.4375 -22.691406 L 1.4375 -22.605469 L 4.652344 -22.605469 L 4.652344 -22.03125 L 1.4375 -22.03125 L 1.4375 -20.453125 C 1.4375 -20.394531 1.4375 -20.308594 1.464844 -20.25 L 3.246094 -20.25 C 3.332031 -19.5625 3.820312 -19.476562 4.023438 -19.476562 L 20.539062 -19.445312 C 20.738281 -19.445312 21.226562 -19.53125 21.3125 -20.25 L 19.53125 -20.25 C 19.53125 -20.308594 19.53125 -20.367188 19.53125 -20.453125 L 19.53125 -22.03125 L 22.75 -22.03125 L 22.75 -22.605469 Z M 21.226562 -2.210938 L 21.226562 -4.109375 C 21.226562 -4.539062 21.085938 -4.769531 20.910156 -4.910156 L 23.441406 -4.910156 C 23.265625 -5.085938 23.039062 -5.113281 22.921875 -5.113281 L 12.78125 -5.113281 C 12.179688 -5.113281 11.691406 -5.171875 11.316406 -5.3125 C 10.945312 -5.429688 10.65625 -5.628906 10.425781 -5.945312 C 10.285156 -6.148438 10.167969 -6.40625 10.082031 -6.691406 L 7.753906 -6.691406 C 7.699219 -6.835938 7.640625 -7.039062 7.613281 -7.210938 C 7.582031 -7.382812 7.582031 -7.554688 7.554688 -7.726562 C 7.554688 -7.726562 7.554688 -7.898438 7.554688 -8.15625 L 18.183594 -8.15625 C 18.183594 -8.359375 18.183594 -8.644531 18.183594 -8.875 L 7.582031 -8.875 C 7.582031 -9.132812 7.582031 -9.394531 7.582031 -9.566406 L 9.335938 -9.566406 C 9.335938 -9.710938 9.335938 -9.796875 9.335938 -9.796875 L 22.175781 -9.796875 C 22.347656 -9.796875 22.664062 -9.824219 22.835938 -10.140625 L 21.085938 -10.140625 C 21.140625 -10.285156 21.226562 -10.484375 21.226562 -10.773438 L 21.226562 -11.863281 L 22.550781 -11.863281 L 22.550781 -12.667969 L 21.226562 -12.667969 L 21.226562 -13.042969 C 21.226562 -13.929688 20.652344 -14.046875 20.421875 -14.046875 L 5.601562 -14.019531 C 4.769531 -13.960938 4.050781 -13.5 3.621094 -12.8125 C 3.589844 -12.753906 3.589844 -12.695312 3.5625 -12.667969 L 4.882812 -12.667969 C 4.796875 -12.464844 4.710938 -12.292969 4.652344 -12.066406 L 4.652344 -11.863281 L 3.332031 -11.863281 L 3.304688 -10.140625 L 5.054688 -10.140625 L 5.054688 -9.566406 L 3.332031 -9.566406 L 3.304688 -8.875 L 6.117188 -8.875 L 6.117188 -8.300781 C 6.117188 -8.273438 6.117188 -8.214844 6.117188 -8.15625 L 3.304688 -8.15625 C 3.332031 -7.640625 3.359375 -7.152344 3.390625 -6.691406 L 5.746094 -6.691406 C 5.800781 -6.03125 5.886719 -5.457031 6.003906 -4.910156 L 3.476562 -4.910156 C 3.476562 -4.910156 3.503906 -4.882812 3.503906 -4.855469 C 3.734375 -3.820312 4.109375 -2.929688 4.625 -2.210938 L 7.007812 -2.210938 C 7.039062 -2.183594 7.066406 -2.097656 7.125 -2.039062 C 7.238281 -1.894531 7.355469 -1.78125 7.496094 -1.636719 L 5.140625 -1.636719 C 5.660156 -1.121094 6.289062 -0.71875 7.007812 -0.460938 C 7.871094 -0.144531 8.960938 0.0273438 10.226562 0.0273438 L 20.421875 0.0273438 C 20.683594 0.0273438 21.257812 -0.0859375 21.257812 -0.976562 L 21.257812 -1.636719 L 23.582031 -1.636719 L 23.582031 -2.210938 Z M 4.882812 -15.828125 L 14.390625 -15.828125 L 14.390625 -15.511719 L 4.882812 -15.511719 Z M 13.789062 -6.605469 L 20.164062 -6.605469 L 20.164062 -6.289062 L 13.789062 -6.289062 Z M 8.960938 -18.210938 L 18.699219 -18.210938 L 18.699219 -17.753906 L 8.960938 -17.753906 Z M 8.960938 -18.210938 "/></g></g></g><g fill="#8c52ff" fill-opacity="1"><g transform="translate(113.642853, 341.789246)"><g><path d="M 51.65625 -39.058594 C 51.65625 -39.617188 51.65625 -40.179688 51.65625 -40.738281 C 51.65625 -42.976562 51.519531 -45.007812 51.167969 -46.828125 L 54.179688 -46.828125 C 54.109375 -47.386719 53.96875 -47.949219 53.828125 -48.507812 L 49.347656 -48.507812 C 48.859375 -50.328125 48.160156 -51.9375 47.179688 -53.199219 C 47.109375 -53.339844 47.039062 -53.40625 46.898438 -53.546875 L 52.148438 -53.546875 C 49.976562 -56.277344 46.617188 -57.679688 42.070312 -57.679688 L 9.800781 -57.679688 C 9.167969 -57.679688 7.769531 -57.46875 7.769531 -55.226562 L 7.769531 -53.546875 L 2.589844 -53.546875 L 2.589844 -49.699219 C 2.589844 -49.207031 2.660156 -48.789062 2.800781 -48.507812 L 10.007812 -48.507812 C 10.429688 -47.457031 11.339844 -47.316406 11.828125 -47.316406 L 42.277344 -47.316406 C 43.257812 -47.316406 44.097656 -47.109375 44.726562 -46.828125 L 38.917969 -46.828125 C 39.480469 -46.546875 39.898438 -46.269531 40.179688 -45.777344 C 40.949219 -44.726562 41.296875 -43.046875 41.296875 -40.738281 C 41.296875 -40.109375 41.296875 -39.617188 41.230469 -39.058594 L 47.808594 -39.058594 C 47.667969 -37.589844 47.316406 -36.46875 46.757812 -35.699219 C 46.058594 -34.648438 44.796875 -34.160156 43.046875 -34.160156 L 12.53125 -34.160156 C 12.320312 -34.160156 12.039062 -34.160156 11.757812 -34.019531 L 7.28125 -34.019531 C 6.71875 -33.808594 6.089844 -33.179688 6.089844 -31.777344 L 6.089844 -25.757812 L 0.351562 -25.757812 L 0.351562 -24.078125 L 8.820312 -24.078125 L 8.820312 -11.199219 L 6.929688 -11.199219 L 6.929688 -6.160156 L -0.980469 -6.160156 L -0.980469 -2.660156 L 7.769531 -2.660156 L 7.769531 -2.378906 C 7.769531 -0.210938 9.167969 0.0703125 9.800781 0.0703125 L 16.167969 0.0703125 C 16.800781 0.0703125 18.128906 -0.210938 18.128906 -2.378906 L 18.128906 -2.660156 L 16.449219 -2.660156 L 16.449219 -6.160156 L 22.328125 -6.160156 L 22.328125 -11.199219 L 19.179688 -11.199219 L 19.179688 -23.800781 L 43.117188 -23.871094 C 44.308594 -23.871094 45.359375 -23.9375 46.339844 -24.078125 L 41.367188 -24.078125 C 43.117188 -24.429688 44.589844 -24.988281 45.847656 -25.757812 L 48.089844 -25.757812 C 49.136719 -26.460938 49.976562 -27.300781 50.75 -28.277344 C 51.796875 -29.820312 52.566406 -31.777344 53.128906 -34.019531 L 55.15625 -34.019531 C 55.4375 -35.558594 55.71875 -37.238281 55.789062 -39.058594 Z M 22.960938 -42.070312 L 8.191406 -42.070312 L 8.191406 -43.886719 L 22.960938 -43.886719 Z M 36.046875 -37.660156 L 24.777344 -37.660156 L 24.777344 -39.058594 L 36.046875 -39.058594 Z M 42.070312 -14.769531 L 24.21875 -14.769531 L 24.21875 -16.167969 L 42.070312 -16.167969 Z M 32.128906 -20.019531 L 19.179688 -20.019531 L 19.179688 -20.929688 L 32.128906 -20.929688 Z M 32.128906 -20.019531 "/></g></g></g><g fill="#8c52ff" fill-opacity="1"><g transform="translate(176.009441, 341.789246)"><g><path d="M 49.839844 -3.710938 L 49.839844 -7.910156 C 49.839844 -10.078125 48.4375 -10.359375 47.878906 -10.359375 L 25.128906 -10.359375 C 23.660156 -10.359375 22.398438 -10.5 21.488281 -10.851562 L 17.917969 -10.851562 C 17.078125 -11.128906 16.378906 -11.691406 15.890625 -12.390625 C 15.328125 -13.160156 14.980469 -14.210938 14.699219 -15.46875 C 14.699219 -15.46875 14.699219 -15.46875 14.699219 -15.539062 L 17.78125 -15.539062 C 17.570312 -16.871094 17.429688 -18.621094 17.429688 -20.71875 L 17.429688 -23.097656 L 23.589844 -23.097656 L 23.589844 -24.640625 L 17.640625 -24.640625 L 17.640625 -36.539062 L 14.699219 -36.539062 L 14.699219 -41.230469 L 27.367188 -41.230469 L 27.367188 -44.378906 L 15.679688 -44.378906 L 15.679688 -49.066406 L 17.640625 -49.066406 L 17.640625 -53.6875 L 14.070312 -53.6875 L 14.070312 -55.226562 C 14.070312 -57.46875 12.667969 -57.679688 12.109375 -57.679688 L 5.667969 -57.679688 C 5.039062 -57.679688 3.640625 -57.46875 3.640625 -55.226562 L 3.640625 -53.6875 L 7.28125 -53.6875 L 7.28125 -49.066406 L 1.121094 -49.066406 L 1.121094 -44.378906 L 6.511719 -44.378906 L 6.511719 -41.230469 L 4.269531 -41.230469 L 4.269531 -36.539062 L 7.28125 -36.539062 L 7.28125 -24.640625 L 3.78125 -24.640625 L 3.78125 -23.097656 L 7.070312 -23.097656 L 7.070312 -21.910156 C 7.070312 -19.53125 7.210938 -17.429688 7.417969 -15.539062 L 4.269531 -15.539062 C 4.480469 -14.210938 4.621094 -12.949219 4.898438 -11.898438 C 4.96875 -11.480469 5.109375 -11.199219 5.179688 -10.851562 L 8.679688 -10.851562 C 9.308594 -8.539062 10.21875 -6.511719 11.480469 -5.039062 C 11.828125 -4.550781 12.179688 -4.128906 12.597656 -3.710938 L 5.878906 -3.710938 C 6.511719 -3.148438 7.210938 -2.660156 7.980469 -2.171875 L 16.378906 -2.171875 C 17.078125 -1.75 17.78125 -1.398438 18.550781 -1.121094 C 20.71875 -0.351562 23.378906 0.0703125 26.390625 0.0703125 L 49.558594 0.0703125 C 50.117188 0.0703125 51.378906 -0.210938 51.449219 -2.171875 L 53.546875 -2.171875 C 53.546875 -2.238281 53.546875 -2.308594 53.546875 -2.378906 L 53.546875 -3.710938 Z M 36.679688 -27.089844 L 26.460938 -27.089844 L 26.460938 -28 L 36.679688 -28 Z M 33.390625 -15.121094 L 18.6875 -15.121094 L 18.6875 -15.890625 L 33.390625 -15.890625 Z M 35.628906 -49.136719 L 21.277344 -49.136719 L 21.277344 -50.539062 L 35.628906 -50.539062 Z M 35.628906 -49.136719 "/></g></g></g><g fill="#8c52ff" fill-opacity="1"><g transform="translate(233.056324, 341.789246)"><g><path d="M 67.335938 -2.589844 L 61.949219 -2.589844 C 61.949219 -2.660156 61.949219 -2.660156 61.949219 -2.660156 L 60.199219 -7 L 64.1875 -7 L 60.40625 -16.308594 L 54.878906 -16.308594 L 53.128906 -20.71875 L 56.839844 -20.71875 L 52.359375 -31.847656 L 55.578125 -31.847656 L 55.019531 -33.320312 L 49.839844 -33.320312 L 46.96875 -40.386719 L 50.398438 -40.386719 L 48.578125 -44.796875 L 43.398438 -44.796875 L 40.808594 -51.167969 C 40.808594 -51.238281 40.738281 -51.308594 40.738281 -51.449219 L 37.730469 -51.449219 C 37.589844 -51.726562 37.449219 -52.007812 37.378906 -52.21875 C 37.308594 -52.429688 37.167969 -52.636719 37.097656 -52.917969 L 45.847656 -52.917969 C 45.148438 -54.738281 43.820312 -56.277344 42.136719 -57.257812 L 40.039062 -57.257812 C 38.777344 -58.027344 37.308594 -58.449219 35.699219 -58.449219 C 34.160156 -58.449219 32.617188 -58.027344 31.359375 -57.257812 L 33.390625 -57.257812 C 33.25 -57.1875 33.109375 -57.046875 32.898438 -56.976562 C 32.550781 -56.769531 32.199219 -56.488281 31.917969 -56.277344 C 31.078125 -55.578125 30.378906 -54.457031 29.609375 -52.917969 L 20.859375 -52.917969 C 20.648438 -52.429688 20.4375 -51.9375 20.230469 -51.449219 L 23.167969 -51.449219 C 23.167969 -51.308594 23.097656 -51.238281 23.097656 -51.167969 L 20.507812 -44.796875 L 25.6875 -44.796875 L 23.9375 -40.386719 L 20.507812 -40.386719 L 17.640625 -33.320312 L 22.820312 -33.320312 L 22.257812 -31.847656 L 18.96875 -31.847656 L 14.488281 -20.71875 L 10.78125 -20.71875 L 9.03125 -16.308594 L 14.558594 -16.308594 L 10.78125 -7 L 6.71875 -7 L 5.039062 -2.660156 C 5.039062 -2.660156 4.96875 -2.660156 4.96875 -2.589844 L 10.429688 -2.589844 C 10.21875 -2.03125 10.148438 -1.609375 10.21875 -1.191406 L 4.621094 -1.191406 C 4.691406 -1.121094 4.691406 -1.050781 4.691406 -0.980469 C 4.761719 -0.558594 5.109375 0.0703125 6.230469 0.0703125 L 13.929688 0.0703125 C 14.769531 0.0703125 15.398438 -0.421875 15.75 -1.191406 L 21.347656 -1.191406 C 21.417969 -1.261719 21.488281 -1.328125 21.488281 -1.398438 L 21.980469 -2.589844 L 16.519531 -2.589844 L 18.269531 -7 L 22.328125 -7 L 24.078125 -11.410156 L 39.410156 -11.410156 C 40.179688 -11.410156 40.878906 -11.757812 41.230469 -12.390625 C 41.648438 -12.949219 41.71875 -13.71875 41.507812 -14.417969 L 40.738281 -16.308594 L 35.207031 -16.308594 L 33.457031 -20.648438 C 33.457031 -20.648438 33.457031 -20.71875 33.457031 -20.71875 L 37.167969 -20.71875 C 36.820312 -21.488281 36.046875 -22.050781 35.140625 -22.050781 L 26.527344 -22.050781 L 27.789062 -25.199219 L 34.789062 -25.199219 L 34.789062 -25.96875 L 28.070312 -25.96875 L 30.378906 -31.847656 L 33.597656 -31.847656 L 34.230469 -33.320312 L 29.050781 -33.320312 L 31.847656 -40.386719 L 35.277344 -40.386719 L 36.957031 -44.726562 C 37.027344 -44.796875 37.027344 -44.796875 37.027344 -44.796875 L 37.449219 -44.796875 L 39.199219 -40.386719 L 35.769531 -40.386719 L 38.636719 -33.320312 L 43.820312 -33.320312 L 44.378906 -31.847656 L 41.160156 -31.847656 L 45.570312 -20.71875 L 41.859375 -20.71875 L 43.609375 -16.308594 L 49.136719 -16.308594 L 52.917969 -7 L 48.859375 -7 L 50.609375 -2.589844 L 56.066406 -2.589844 L 56.488281 -1.46875 C 56.558594 -1.328125 56.628906 -1.261719 56.628906 -1.191406 L 51.027344 -1.191406 C 51.449219 -0.421875 52.078125 0.0703125 52.917969 0.0703125 L 60.40625 0.0703125 C 61.527344 0.0703125 61.808594 -0.628906 61.949219 -0.980469 C 61.949219 -0.980469 61.949219 -1.121094 61.949219 -1.191406 L 67.546875 -1.191406 C 67.617188 -1.609375 67.546875 -2.03125 67.335938 -2.589844 Z M 31.988281 -8.820312 L 43.75 -8.820312 L 43.75 -8.121094 L 31.988281 -8.121094 Z M 19.808594 -4.96875 L 27.507812 -4.96875 L 27.507812 -4.199219 L 19.808594 -4.199219 Z M 19.808594 -4.96875 "/></g></g></g><g fill="#8c52ff" fill-opacity="1"><g transform="translate(305.292376, 341.789246)"><g><path d="M 59.359375 -49.488281 L 62.4375 -54.808594 L 55.929688 -54.808594 L 56.136719 -55.15625 C 56.417969 -55.648438 56.488281 -56.207031 56.277344 -56.769531 C 56.066406 -57.328125 55.578125 -57.679688 55.019531 -57.679688 L 47.25 -57.679688 C 46.617188 -57.679688 45.777344 -57.46875 45.21875 -56.417969 L 44.378906 -54.808594 L 50.816406 -54.808594 L 47.949219 -49.488281 L 41.929688 -49.488281 L 39.128906 -44.238281 L 42.070312 -44.238281 L 42 -44.167969 L 45.007812 -44.167969 L 42.976562 -40.457031 L 36.46875 -40.457031 L 31.289062 -31.078125 L 28.277344 -31.078125 L 23.167969 -40.457031 L 29.679688 -40.457031 L 27.648438 -44.167969 L 24.710938 -44.167969 L 24.640625 -44.238281 L 21.699219 -44.238281 L 18.828125 -49.488281 L 24.777344 -49.488281 L 21.910156 -54.808594 L 15.398438 -54.808594 L 14.558594 -56.347656 C 14 -57.46875 13.160156 -57.679688 12.53125 -57.679688 L 4.621094 -57.679688 C 3.988281 -57.679688 3.5 -57.328125 3.289062 -56.699219 C 3.148438 -56.207031 3.21875 -55.648438 3.5 -55.15625 L 3.710938 -54.808594 L 10.148438 -54.808594 L 13.160156 -49.488281 L 7.210938 -49.488281 L 10.148438 -44.238281 L 13.089844 -44.238281 L 13.089844 -44.167969 L 16.097656 -44.167969 L 18.199219 -40.457031 L 11.691406 -40.457031 L 16.9375 -31.078125 L 24.148438 -31.078125 L 26.597656 -26.808594 L 19.390625 -26.808594 L 21.140625 -23.660156 L 28.417969 -23.660156 L 31.359375 -18.269531 L 25.757812 -18.269531 L 26.109375 -17.710938 L 26.109375 -10.988281 L 29.679688 -10.988281 L 29.679688 -6.019531 L 23.519531 -6.019531 L 23.519531 -2.378906 C 23.519531 -2.238281 23.519531 -2.101562 23.519531 -1.890625 L 30.9375 -1.890625 C 31.148438 -0.210938 32.339844 0 32.898438 0 L 39.339844 0 C 39.828125 0 41.019531 -0.210938 41.230469 -1.890625 L 38.289062 -1.890625 C 38.359375 -2.101562 38.359375 -2.238281 38.359375 -2.378906 L 38.359375 -6.019531 L 40.039062 -6.019531 L 40.039062 -10.988281 L 36.46875 -10.988281 L 36.46875 -17.710938 L 36.820312 -18.269531 L 42.417969 -18.269531 L 45.5 -23.660156 L 38.21875 -23.660156 L 40.039062 -26.808594 L 47.25 -26.808594 L 49.699219 -31.078125 L 42.417969 -31.078125 L 47.738281 -40.457031 L 54.25 -40.457031 L 56.347656 -44.167969 L 53.40625 -44.167969 L 53.40625 -44.238281 L 50.46875 -44.238281 L 53.40625 -49.488281 Z M 38.636719 -54.109375 L 27.019531 -54.109375 L 27.019531 -55.507812 L 38.636719 -55.507812 Z M 32.617188 -45.847656 L 25.269531 -45.847656 L 25.269531 -47.25 L 32.617188 -47.25 Z M 47.25 -15.539062 L 40.179688 -15.539062 L 40.179688 -16.660156 L 47.25 -16.660156 Z M 23.449219 -19.949219 L 15.960938 -19.949219 L 15.960938 -21.558594 L 23.449219 -21.558594 Z M 23.449219 -19.949219 "/></g></g></g></svg>